<svg xmlns="http://www.w3.org/2000/svg" version="1.1" xmlns:xlink="http://www.w3.org/1999/xlink" xmlns:svgjs="http://svgjs.dev/svgjs" width="1000" height="1000" viewBox="0 0 1000 1000"><rect width="1000" height="1000" fill="#77d4fc"></rect><g transform="matrix(0.7,0,0,0.7,149.57575757575756,282.1265587044535)"><svg viewBox="0 0 396 247" data-background-color="#77d4fc" preserveAspectRatio="xMidYMid meet" height="623" width="1000" xmlns="http://www.w3.org/2000/svg" xmlns:xlink="http://www.w3.org/1999/xlink"><g id="tight-bounds" transform="matrix(1,0,0,1,0.2400000000000091,-0.09999999999999432)"><svg viewBox="0 0 395.52 247.2" height="247.2" width="395.52"><g><svg></svg></g><g><svg viewBox="0 0 395.52 247.2" height="247.2" width="395.52"><mask id="089f02df-dafe-4f61-a6bb-059fdfc7640c"><rect width="640" height="400" fill="white"></rect><g transform="matrix(1,0,0,1,102.60931034482759,37.08)"><svg viewBox="0 0 190.3013793103448 173.04" height="173.04" width="190.3013793103448"><g><svg viewBox="0 0 190.3013793103448 173.04" height="173.04" width="190.3013793103448"><g><svg viewBox="0 0 190.30137931034483 173.04000000000002" height="173.04" width="190.3013793103448"><g><svg viewBox="0 0 190.30137931034483 173.04000000000002" height="173.04000000000002" width="190.30137931034483"><g id="SvgjsG1054"><svg viewBox="0 0 190.30137931034483 173.04000000000002" height="173.04000000000002" width="190.30137931034483" id="SvgjsSvg1053"><g><svg viewBox="0 0 190.30137931034483 173.04000000000002" height="173.04000000000002" width="190.30137931034483"><g transform="matrix(1,0,0,1,0,0)"><svg width="190.30137931034483" viewBox="-1.0999999046325684 -37.650001525878906 45.64999771118164 41.60000228881836" height="173.04000000000002" data-palette-color="#000000"><path d="M4.5-0.05Q3.65-0.05 3.4-1.15L3.4-1.15Q3.15-1.7 3.15-3.15L3.15-3.15Q3.15-7.5 3.05-10.9L3.05-10.9Q2.9-15.8 2.9-21.25L2.9-21.25 2.9-32.25Q2.9-32.7 3.33-33.13 3.75-33.55 4.2-33.55L4.2-33.55 9.95-33.5Q11.55-33.45 14.15-33.45L14.15-33.45Q17.9-33.45 19.95-33.5L19.95-33.5 21.8-33.55Q24.8-33.65 26.75-33.65L26.75-33.65Q29.9-33.65 32.75-32.75L32.75-32.75Q36.1-31.75 38.2-29.3L38.2-29.3Q40.55-26.65 40.55-22.15L40.55-22.15Q40.55-14.55 36.7-11.15L36.7-11.15Q33.3-7.95 26.55-7.95L26.55-7.95 19.7-7.95Q19.75-6.8 19.75-5.5L19.75-5.5Q19.75-5.05 19.73-4.42 19.7-3.8 19.7-2.75L19.7-2.75Q19.7-1.1 19-0.65L19-0.65Q18.45-0.2 16.95-0.2L16.95-0.2Q14.75-0.2 13.9-0.15L13.9-0.15Q10.45-0.15 8.4-0.05L8.4-0.05 4.5-0.05ZM21-13.95L22.4-13.95Q23.45-13.95 23.95-15.95L23.95-15.95Q24.35-17.3 24.55-19.95L24.55-19.95Q24.65-21.4 24.65-23.2L24.65-23.2 24.65-23.75Q24.65-24.55 24.4-26.15L24.4-26.15Q24.2-27.05 23.95-27.58 23.7-28.1 23.3-28.45L23.3-28.45Q22.9-28.9 22.4-28.9L22.4-28.9Q22.15-28.9 21.98-28.7 21.8-28.5 21.65-28.2L21.65-28.2Q21.1-27.3 20.65-24.2L20.65-24.2Q20.5-23.3 20.4-21.5L20.4-21.5Q20.15-18.75 20.15-14.15L20.15-14.15Q20.15-14.15 20.2-14.1 20.25-14.05 20.4-14L20.4-14 21-13.95Z" opacity="1" transform="matrix(1,0,0,1,0,0)" fill="black" class="wordmark-text-0" id="SvgjsPath1052" stroke-width="7" stroke="black" stroke-linejoin="round"></path></svg></g></svg></g></svg></g></svg></g></svg></g></svg></g></svg></g></mask><g transform="matrix(1,0,0,1,102.60931034482759,37.08)"><svg viewBox="0 0 190.3013793103448 173.04" height="173.04" width="190.3013793103448"><g><svg viewBox="0 0 190.3013793103448 173.04" height="173.04" width="190.3013793103448"><g><svg viewBox="0 0 190.30137931034483 173.04000000000002" height="173.04" width="190.3013793103448"><g><svg viewBox="0 0 190.30137931034483 173.04000000000002" height="173.04000000000002" width="190.30137931034483"><g id="textblocktransform"><svg viewBox="0 0 190.30137931034483 173.04000000000002" height="173.04000000000002" width="190.30137931034483" id="textblock"><g><svg viewBox="0 0 190.30137931034483 173.04000000000002" height="173.04000000000002" width="190.30137931034483"><g transform="matrix(1,0,0,1,0,0)"><svg width="190.30137931034483" viewBox="-1.0999999046325684 -37.650001525878906 45.64999771118164 41.60000228881836" height="173.04000000000002" data-palette-color="#000000"><path d="M4.5-0.05Q3.65-0.05 3.4-1.15L3.4-1.15Q3.15-1.7 3.15-3.15L3.15-3.15Q3.15-7.5 3.05-10.9L3.05-10.9Q2.9-15.8 2.9-21.25L2.9-21.25 2.9-32.25Q2.9-32.7 3.33-33.13 3.75-33.55 4.2-33.55L4.2-33.55 9.95-33.5Q11.55-33.45 14.15-33.45L14.15-33.45Q17.9-33.45 19.95-33.5L19.95-33.5 21.8-33.55Q24.8-33.65 26.75-33.65L26.75-33.65Q29.9-33.65 32.75-32.75L32.75-32.75Q36.1-31.75 38.2-29.3L38.2-29.3Q40.55-26.65 40.55-22.15L40.55-22.15Q40.55-14.55 36.7-11.15L36.7-11.15Q33.3-7.95 26.55-7.95L26.55-7.95 19.7-7.95Q19.75-6.8 19.75-5.5L19.75-5.5Q19.75-5.05 19.73-4.42 19.7-3.8 19.7-2.75L19.7-2.75Q19.7-1.1 19-0.65L19-0.65Q18.45-0.2 16.95-0.2L16.95-0.2Q14.75-0.2 13.9-0.15L13.9-0.15Q10.45-0.15 8.4-0.05L8.4-0.05 4.5-0.05ZM21-13.95L22.4-13.95Q23.45-13.95 23.95-15.95L23.95-15.95Q24.35-17.3 24.55-19.95L24.55-19.95Q24.65-21.4 24.65-23.2L24.65-23.2 24.65-23.75Q24.65-24.55 24.4-26.15L24.4-26.15Q24.2-27.05 23.95-27.58 23.7-28.1 23.3-28.45L23.3-28.45Q22.9-28.9 22.4-28.9L22.4-28.9Q22.15-28.9 21.98-28.7 21.8-28.5 21.65-28.2L21.65-28.2Q21.1-27.3 20.65-24.2L20.65-24.2Q20.5-23.3 20.4-21.5L20.4-21.5Q20.15-18.75 20.15-14.15L20.15-14.15Q20.15-14.15 20.2-14.1 20.25-14.05 20.4-14L20.4-14 21-13.95Z" opacity="1" transform="matrix(1,0,0,1,0,0)" fill="#000000" class="wordmark-text-0" data-fill-palette-color="primary" id="text-0"></path></svg></g></svg></g></svg></g></svg></g></svg></g></svg></g></svg></g><g mask="url(#089f02df-dafe-4f61-a6bb-059fdfc7640c)"><g transform="matrix(2.5696111937340826, 0, 0, 2.5696111937340826, 69.27959714991658, 1)"><svg xmlns="http://www.w3.org/2000/svg" xmlns:xlink="http://www.w3.org/1999/xlink" version="1.1" x="0" y="0" viewBox="0 2.2889997959136963 99.9998779296875 95.4229965209961" enable-background="new 0 0 100 100" xml:space="preserve" height="95.4229965209961" width="99.9998779296875" class="icon-none" data-fill-palette-color="accent" id="none"><g fill="#000000" data-fill-palette-color="accent"><path d="M99.279 18.508L83.756 2.982c-0.923-0.924-2.558-0.924-3.48 0l-9.656 9.659c-0.756-2.6-3.13-4.516-5.968-4.516H6.243C2.8 8.126 0 10.928 0 14.37v46.522c0 3.443 2.8 6.243 6.243 6.243h10.016l-3.005 3.006c-0.01 0.009-0.019 0.021-0.029 0.029l-0.055 0.055c-0.078 0.077-0.138 0.164-0.202 0.248-0.079 0.102-0.147 0.207-0.209 0.32-0.054 0.1-0.107 0.199-0.146 0.304-0.012 0.031-0.033 0.058-0.043 0.09L4.807 94.471c-0.294 0.885-0.064 1.86 0.595 2.519 0.469 0.47 1.098 0.722 1.741 0.722 0.26 0 0.522-0.042 0.777-0.126l23.287-7.762c0.021-0.007 0.039-0.021 0.061-0.029 0.167-0.061 0.329-0.137 0.48-0.232 0.01-0.006 0.02-0.009 0.029-0.015 0.142-0.093 0.274-0.198 0.395-0.318L54.26 67.136h10.392c3.442 0 6.241-2.8 6.241-6.243V50.498l15.009-15.011c0.147-0.148 0.267-0.317 0.37-0.494l13.008-13.006C100.24 21.026 100.24 19.468 99.279 18.508zM65.971 60.893c0 0.729-0.592 1.321-1.319 1.321h-5.47l6.789-6.792V60.893zM68.494 21.848l4.443 4.442L22.833 76.408l-4.442-4.441L68.494 21.848zM4.921 60.893V14.37c0-0.729 0.592-1.321 1.321-1.321h58.409c0.728 0 1.319 0.592 1.319 1.321v2.948L21.174 62.214H6.243C5.514 62.214 4.921 61.621 4.921 60.893zM11.033 91.359l4.946-14.839 9.893 9.893L11.033 91.359zM66.693 47.738c0 0-0.002 0-0.002 0.002l-2.67 2.671-33.59 33.597-4.119-4.12L76.418 29.77l4.121 4.12L66.693 47.738zM84.1 30.205L72.055 18.166l9.961-9.962 12.043 12.043L84.1 30.205z" fill="#000000" data-fill-palette-color="accent"></path><path d="M22.885 27.229c0-0.652-0.259-1.277-0.721-1.74l-5.917-5.916c-0.961-0.959-2.519-0.96-3.48 0.002-0.961 0.96-0.961 2.519 0 3.48l4.176 4.174-4.176 4.176c-0.962 0.962-0.962 2.52 0 3.48 0.48 0.48 1.11 0.722 1.74 0.722 0.629 0 1.259-0.241 1.74-0.721l5.917-5.916C22.625 28.508 22.885 27.883 22.885 27.229z" fill="#000000" data-fill-palette-color="accent"></path><path d="M26.482 35.606h7.048c1.359 0 2.461-1.102 2.461-2.461 0-1.358-1.102-2.462-2.461-2.462h-7.048c-1.359 0-2.46 1.104-2.46 2.462C24.021 34.505 25.123 35.606 26.482 35.606z" fill="#000000" data-fill-palette-color="accent"></path></g></svg></g></g></svg></g><defs></defs></svg><rect width="395.52" height="247.2" fill="none" stroke="none" visibility="hidden"></rect></g></svg></g></svg>